<?xml version='1.0' encoding='UTF-8' standalone='no'?>
<svg width="576pt" xmlns="http://www.w3.org/2000/svg" xmlns:xlink="http://www.w3.org/1999/xlink" height="432pt" viewBox="0 0 576 432">
 <title>gl2ps_renderer figure</title>
 <desc>
Creator: GL2PS 1.4.0, (C) 1999-2017 C. Geuzaine
For: Octave
CreationDate: Tue Oct 27 15:44:43 2020
</desc>
 <defs/>
 <polygon fill="#ffffff" points="0,0 576,0 576,432 0,432"/>
 <g>
  <polygon fill="#ffffff" points="0,432 576,432 576,0 0,0" shape-rendering="crispEdges"/>
  <clipPath id="cp00576432">
   <polygon points="0,432 576,432 576,0 0,0"/>
  </clipPath>
  <g clip-path="url(#cp00576432)">
   <polygon fill="#ffffff" shape-rendering="crispEdges" points="74.88,384.48 521.28,384.48 521.28,32.4 74.88,32.4"/>
   <polyline stroke-opacity="0.15" stroke-linejoin="miter" fill="none" points="74.88,384.48 74.88,32.4" stroke="#262626" stroke-dasharray="16,0" stroke-width="0.5" stroke-linecap="butt"/>
   <polyline stroke-opacity="0.15" stroke-linejoin="miter" fill="none" points="164.16,384.48 164.16,32.4" stroke="#262626" stroke-dasharray="16,0" stroke-width="0.5" stroke-linecap="butt"/>
   <polyline stroke-opacity="0.15" stroke-linejoin="miter" fill="none" points="253.44,384.48 253.44,32.4" stroke="#262626" stroke-dasharray="16,0" stroke-width="0.5" stroke-linecap="butt"/>
   <polyline stroke-opacity="0.15" stroke-linejoin="miter" fill="none" points="342.72,384.48 342.72,32.4" stroke="#262626" stroke-dasharray="16,0" stroke-width="0.5" stroke-linecap="butt"/>
   <polyline stroke-opacity="0.15" stroke-linejoin="miter" fill="none" points="432,384.48 432,32.4" stroke="#262626" stroke-dasharray="16,0" stroke-width="0.5" stroke-linecap="butt"/>
   <polyline stroke-opacity="0.15" stroke-linejoin="miter" fill="none" points="521.28,384.48 521.28,32.4" stroke="#262626" stroke-dasharray="16,0" stroke-width="0.5" stroke-linecap="butt"/>
   <polyline stroke-linejoin="miter" fill="none" points="74.88,384.48 74.88,380.015" stroke="#262626" stroke-width="0.5" stroke-linecap="butt"/>
   <polyline stroke-linejoin="miter" fill="none" points="74.88,32.4 74.88,36.8651" stroke="#262626" stroke-width="0.5" stroke-linecap="butt"/>
   <polyline stroke-linejoin="miter" fill="none" points="164.16,384.48 164.16,380.015" stroke="#262626" stroke-width="0.5" stroke-linecap="butt"/>
   <polyline stroke-linejoin="miter" fill="none" points="164.16,32.4 164.16,36.8651" stroke="#262626" stroke-width="0.5" stroke-linecap="butt"/>
   <polyline stroke-linejoin="miter" fill="none" points="253.44,384.48 253.44,380.015" stroke="#262626" stroke-width="0.5" stroke-linecap="butt"/>
   <polyline stroke-linejoin="miter" fill="none" points="253.44,32.4 253.44,36.8651" stroke="#262626" stroke-width="0.5" stroke-linecap="butt"/>
   <polyline stroke-linejoin="miter" fill="none" points="342.72,384.48 342.72,380.015" stroke="#262626" stroke-width="0.5" stroke-linecap="butt"/>
   <polyline stroke-linejoin="miter" fill="none" points="342.72,32.4 342.72,36.8651" stroke="#262626" stroke-width="0.5" stroke-linecap="butt"/>
   <polyline stroke-linejoin="miter" fill="none" points="432,384.48 432,380.015" stroke="#262626" stroke-width="0.5" stroke-linecap="butt"/>
   <polyline stroke-linejoin="miter" fill="none" points="432,32.4 432,36.8651" stroke="#262626" stroke-width="0.5" stroke-linecap="butt"/>
   <polyline stroke-linejoin="miter" fill="none" points="521.28,384.48 521.28,380.015" stroke="#262626" stroke-width="0.5" stroke-linecap="butt"/>
   <polyline stroke-linejoin="miter" fill="none" points="521.28,32.4 521.28,36.8651" stroke="#262626" stroke-width="0.5" stroke-linecap="butt"/>
   <text font-style="normal" transform="translate(71.88,399.982) rotate(-0,3,-8)" font-size="10" xml:space="preserve" font-family="FreeSans" font-weight="normal">
    <tspan x="0 " fill="rgb(38,38,38)" y="-0">1</tspan>
   </text>
   <text font-style="normal" transform="translate(161.16,399.982) rotate(-0,3,-8)" font-size="10" xml:space="preserve" font-family="FreeSans" font-weight="normal">
    <tspan x="0 " fill="rgb(38,38,38)" y="-0">2</tspan>
   </text>
   <text font-style="normal" transform="translate(250.44,399.982) rotate(-0,3,-8)" font-size="10" xml:space="preserve" font-family="FreeSans" font-weight="normal">
    <tspan x="0 " fill="rgb(38,38,38)" y="-0">3</tspan>
   </text>
   <text font-style="normal" transform="translate(339.72,399.982) rotate(-0,3,-8)" font-size="10" xml:space="preserve" font-family="FreeSans" font-weight="normal">
    <tspan x="0 " fill="rgb(38,38,38)" y="-0">4</tspan>
   </text>
   <text font-style="normal" transform="translate(429,399.982) rotate(-0,3,-8)" font-size="10" xml:space="preserve" font-family="FreeSans" font-weight="normal">
    <tspan x="0 " fill="rgb(38,38,38)" y="-0">5</tspan>
   </text>
   <text font-style="normal" transform="translate(518.28,399.982) rotate(-0,3,-8)" font-size="10" xml:space="preserve" font-family="FreeSans" font-weight="normal">
    <tspan x="0 " fill="rgb(38,38,38)" y="-0">6</tspan>
   </text>
   <polyline stroke-opacity="0.15" stroke-linejoin="miter" fill="none" points="74.88,384.48 521.28,384.48" stroke="#262626" stroke-dasharray="16,0" stroke-width="0.5" stroke-linecap="butt"/>
   <polyline stroke-opacity="0.15" stroke-linejoin="miter" fill="none" points="74.88,314.064 521.28,314.064" stroke="#262626" stroke-dasharray="16,0" stroke-width="0.5" stroke-linecap="butt"/>
   <polyline stroke-opacity="0.15" stroke-linejoin="miter" fill="none" points="74.88,243.648 521.28,243.648" stroke="#262626" stroke-dasharray="16,0" stroke-width="0.5" stroke-linecap="butt"/>
   <polyline stroke-opacity="0.15" stroke-linejoin="miter" fill="none" points="74.88,173.232 521.28,173.232" stroke="#262626" stroke-dasharray="16,0" stroke-width="0.5" stroke-linecap="butt"/>
   <polyline stroke-opacity="0.15" stroke-linejoin="miter" fill="none" points="74.88,102.816 521.28,102.816" stroke="#262626" stroke-dasharray="16,0" stroke-width="0.5" stroke-linecap="butt"/>
   <polyline stroke-opacity="0.15" stroke-linejoin="miter" fill="none" points="74.88,32.4 521.28,32.4" stroke="#262626" stroke-dasharray="16,0" stroke-width="0.5" stroke-linecap="butt"/>
   <polyline stroke-linejoin="miter" fill="none" points="74.88,384.48 79.348,384.48" stroke="#262626" stroke-width="0.5" stroke-linecap="butt"/>
   <polyline stroke-linejoin="miter" fill="none" points="521.28,384.48 516.812,384.48" stroke="#262626" stroke-width="0.5" stroke-linecap="butt"/>
   <polyline stroke-linejoin="miter" fill="none" points="74.88,314.064 79.348,314.064" stroke="#262626" stroke-width="0.5" stroke-linecap="butt"/>
   <polyline stroke-linejoin="miter" fill="none" points="521.28,314.064 516.812,314.064" stroke="#262626" stroke-width="0.5" stroke-linecap="butt"/>
   <polyline stroke-linejoin="miter" fill="none" points="74.88,243.648 79.348,243.648" stroke="#262626" stroke-width="0.5" stroke-linecap="butt"/>
   <polyline stroke-linejoin="miter" fill="none" points="521.28,243.648 516.812,243.648" stroke="#262626" stroke-width="0.5" stroke-linecap="butt"/>
   <polyline stroke-linejoin="miter" fill="none" points="74.88,173.232 79.348,173.232" stroke="#262626" stroke-width="0.5" stroke-linecap="butt"/>
   <polyline stroke-linejoin="miter" fill="none" points="521.28,173.232 516.812,173.232" stroke="#262626" stroke-width="0.5" stroke-linecap="butt"/>
   <polyline stroke-linejoin="miter" fill="none" points="74.88,102.816 79.348,102.816" stroke="#262626" stroke-width="0.5" stroke-linecap="butt"/>
   <polyline stroke-linejoin="miter" fill="none" points="521.28,102.816 516.812,102.816" stroke="#262626" stroke-width="0.5" stroke-linecap="butt"/>
   <polyline stroke-linejoin="miter" fill="none" points="74.88,32.4 79.348,32.4" stroke="#262626" stroke-width="0.5" stroke-linecap="butt"/>
   <polyline stroke-linejoin="miter" fill="none" points="521.28,32.4 516.812,32.4" stroke="#262626" stroke-width="0.5" stroke-linecap="butt"/>
   <text font-style="normal" transform="translate(57.8755,388.48) rotate(-0,12,-4)" font-size="10" xml:space="preserve" font-family="FreeSans" font-weight="normal">
    <tspan x="0 6 " fill="rgb(38,38,38)" y="-0">40</tspan>
   </text>
   <text font-style="normal" transform="translate(57.8755,318.064) rotate(-0,12,-4)" font-size="10" xml:space="preserve" font-family="FreeSans" font-weight="normal">
    <tspan x="0 6 " fill="rgb(38,38,38)" y="-0">60</tspan>
   </text>
   <text font-style="normal" transform="translate(57.8755,247.648) rotate(-0,12,-4)" font-size="10" xml:space="preserve" font-family="FreeSans" font-weight="normal">
    <tspan x="0 6 " fill="rgb(38,38,38)" y="-0">80</tspan>
   </text>
   <text font-style="normal" transform="translate(51.8755,177.232) rotate(-0,18,-4)" font-size="10" xml:space="preserve" font-family="FreeSans" font-weight="normal">
    <tspan x="0 6 12 " fill="rgb(38,38,38)" y="-0">100</tspan>
   </text>
   <text font-style="normal" transform="translate(51.8755,106.816) rotate(-0,18,-4)" font-size="10" xml:space="preserve" font-family="FreeSans" font-weight="normal">
    <tspan x="0 6 12 " fill="rgb(38,38,38)" y="-0">120</tspan>
   </text>
   <text font-style="normal" transform="translate(51.8755,36.4) rotate(-0,18,-4)" font-size="10" xml:space="preserve" font-family="FreeSans" font-weight="normal">
    <tspan x="0 6 12 " fill="rgb(38,38,38)" y="-0">140</tspan>
   </text>
   <polyline stroke-linejoin="miter" fill="none" points="74.88,384.48 521.28,384.48" stroke="#262626" stroke-dasharray="16,0" stroke-width="0.5" stroke-linecap="square"/>
   <polyline stroke-linejoin="miter" fill="none" points="74.88,32.4 521.28,32.4" stroke="#262626" stroke-dasharray="16,0" stroke-width="0.5" stroke-linecap="square"/>
   <polyline stroke-linejoin="miter" fill="none" points="74.88,384.48 74.88,32.4" stroke="#262626" stroke-dasharray="16,0" stroke-width="0.5" stroke-linecap="square"/>
   <polyline stroke-linejoin="miter" fill="none" points="521.28,384.48 521.28,32.4" stroke="#262626" stroke-dasharray="16,0" stroke-width="0.5" stroke-linecap="square"/>
   <text font-style="normal" transform="translate(242.08,416.982) rotate(-0,56,-12)" font-size="11" xml:space="preserve" font-family="FreeSans" font-weight="normal">
    <tspan x="0 9 15 21 27 30 36 42 45 51 55 61 64 70 75 81 87 93 98 100 106 " fill="rgb(38,38,38)" y="-3">Mach before expansion</tspan>
   </text>
   <text font-style="normal" transform="translate(-17.6245,208.44) rotate(-90,64.5,0)" font-size="11" xml:space="preserve" font-family="FreeSans" font-weight="normal">
    <tspan x="0 7 12 18 24 30 35 37 43 49 52 59 65 71 73 79 82 86 92 98 104 108 114 120 125 " fill="rgb(38,38,38)" y="-3">Expansion Angle (degrees)</tspan>
   </text>
   <polyline stroke-linejoin="round" fill="none" points="74.88,66.0093 83.808,70.7138 92.736,78.5371 101.664,87.7336 110.592,97.6508 119.52,107.925 128.448,118.33 137.376,128.714 146.304,138.978 155.232,149.051 164.16,158.887 173.088,168.454 182.016,177.733 190.944,186.712 199.872,195.387 208.8,203.756 217.728,211.822 226.656,219.592 235.584,227.071 244.512,234.269 253.44,241.195 262.368,247.858 271.296,254.268 280.224,260.435 289.152,266.369 298.08,272.081 307.008,277.579 315.936,282.874 324.864,287.974 333.792,292.888 342.72,297.624 351.648,302.192 360.576,306.597 369.504,310.848 378.432,314.952 387.36,318.914 396.288,322.743 405.216,326.443 414.144,330.021 423.072,333.481 432,336.83 440.928,340.071 449.856,343.21 458.784,346.251 467.712,349.199 476.64,352.056 485.568,354.827 494.496,357.516 503.424,360.126 512.352,362.66 521.28,365.121" stroke="#0071bc" stroke-width="0.5" stroke-linecap="butt"/>
  </g>
 </g>
</svg>
