<?xml version='1.0' encoding='UTF-8' standalone='no'?>
<svg height="432pt" xmlns:xlink="http://www.w3.org/1999/xlink" viewBox="0 0 576 432" xmlns="http://www.w3.org/2000/svg" width="576pt">
 <title>gl2ps_renderer figure</title>
 <desc>
Creator: GL2PS 1.4.0, (C) 1999-2017 C. Geuzaine
For: Octave
CreationDate: Tue Oct 27 15:46:38 2020
</desc>
 <defs/>
 <polygon points="0,0 576,0 576,432 0,432" fill="#ffffff"/>
 <g>
  <polygon shape-rendering="crispEdges" points="0,432 576,432 576,0 0,0" fill="#ffffff"/>
  <clipPath id="cp00576432">
   <polygon points="0,432 576,432 576,0 0,0"/>
  </clipPath>
  <g clip-path="url(#cp00576432)">
   <polygon shape-rendering="crispEdges" points="74.88,384.48 521.28,384.48 521.28,32.4 74.88,32.4" fill="#ffffff"/>
   <polyline stroke-opacity="0.15" stroke-linecap="butt" stroke-dasharray="16,0" points="74.88,384.48 74.88,32.4" stroke-linejoin="miter" stroke-width="0.5" fill="none" stroke="#262626"/>
   <polyline stroke-opacity="0.15" stroke-linecap="butt" stroke-dasharray="16,0" points="164.16,384.48 164.16,32.4" stroke-linejoin="miter" stroke-width="0.5" fill="none" stroke="#262626"/>
   <polyline stroke-opacity="0.15" stroke-linecap="butt" stroke-dasharray="16,0" points="253.44,384.48 253.44,32.4" stroke-linejoin="miter" stroke-width="0.5" fill="none" stroke="#262626"/>
   <polyline stroke-opacity="0.15" stroke-linecap="butt" stroke-dasharray="16,0" points="342.72,384.48 342.72,32.4" stroke-linejoin="miter" stroke-width="0.5" fill="none" stroke="#262626"/>
   <polyline stroke-opacity="0.15" stroke-linecap="butt" stroke-dasharray="16,0" points="432,384.48 432,32.4" stroke-linejoin="miter" stroke-width="0.5" fill="none" stroke="#262626"/>
   <polyline stroke-opacity="0.15" stroke-linecap="butt" stroke-dasharray="16,0" points="521.28,384.48 521.28,32.4" stroke-linejoin="miter" stroke-width="0.5" fill="none" stroke="#262626"/>
   <polyline stroke-linecap="butt" points="74.88,384.48 74.88,380.015" stroke-linejoin="miter" stroke-width="0.5" fill="none" stroke="#262626"/>
   <polyline stroke-linecap="butt" points="74.88,32.4 74.88,36.865" stroke-linejoin="miter" stroke-width="0.5" fill="none" stroke="#262626"/>
   <polyline stroke-linecap="butt" points="164.16,384.48 164.16,380.015" stroke-linejoin="miter" stroke-width="0.5" fill="none" stroke="#262626"/>
   <polyline stroke-linecap="butt" points="164.16,32.4 164.16,36.865" stroke-linejoin="miter" stroke-width="0.5" fill="none" stroke="#262626"/>
   <polyline stroke-linecap="butt" points="253.44,384.48 253.44,380.015" stroke-linejoin="miter" stroke-width="0.5" fill="none" stroke="#262626"/>
   <polyline stroke-linecap="butt" points="253.44,32.4 253.44,36.865" stroke-linejoin="miter" stroke-width="0.5" fill="none" stroke="#262626"/>
   <polyline stroke-linecap="butt" points="342.72,384.48 342.72,380.015" stroke-linejoin="miter" stroke-width="0.5" fill="none" stroke="#262626"/>
   <polyline stroke-linecap="butt" points="342.72,32.4 342.72,36.865" stroke-linejoin="miter" stroke-width="0.5" fill="none" stroke="#262626"/>
   <polyline stroke-linecap="butt" points="432,384.48 432,380.015" stroke-linejoin="miter" stroke-width="0.5" fill="none" stroke="#262626"/>
   <polyline stroke-linecap="butt" points="432,32.4 432,36.865" stroke-linejoin="miter" stroke-width="0.5" fill="none" stroke="#262626"/>
   <polyline stroke-linecap="butt" points="521.28,384.48 521.28,380.015" stroke-linejoin="miter" stroke-width="0.5" fill="none" stroke="#262626"/>
   <polyline stroke-linecap="butt" points="521.28,32.4 521.28,36.865" stroke-linejoin="miter" stroke-width="0.5" fill="none" stroke="#262626"/>
   <text font-style="normal" transform="translate(71.88,399.982) rotate(-0,3,-8)" font-weight="normal" font-size="10" font-family="FreeSans" xml:space="preserve">
    <tspan x="0 " y="-0" fill="rgb(38,38,38)">1</tspan>
   </text>
   <text font-style="normal" transform="translate(161.16,399.982) rotate(-0,3,-8)" font-weight="normal" font-size="10" font-family="FreeSans" xml:space="preserve">
    <tspan x="0 " y="-0" fill="rgb(38,38,38)">2</tspan>
   </text>
   <text font-style="normal" transform="translate(250.44,399.982) rotate(-0,3,-8)" font-weight="normal" font-size="10" font-family="FreeSans" xml:space="preserve">
    <tspan x="0 " y="-0" fill="rgb(38,38,38)">3</tspan>
   </text>
   <text font-style="normal" transform="translate(339.72,399.982) rotate(-0,3,-8)" font-weight="normal" font-size="10" font-family="FreeSans" xml:space="preserve">
    <tspan x="0 " y="-0" fill="rgb(38,38,38)">4</tspan>
   </text>
   <text font-style="normal" transform="translate(429,399.982) rotate(-0,3,-8)" font-weight="normal" font-size="10" font-family="FreeSans" xml:space="preserve">
    <tspan x="0 " y="-0" fill="rgb(38,38,38)">5</tspan>
   </text>
   <text font-style="normal" transform="translate(518.28,399.982) rotate(-0,3,-8)" font-weight="normal" font-size="10" font-family="FreeSans" xml:space="preserve">
    <tspan x="0 " y="-0" fill="rgb(38,38,38)">6</tspan>
   </text>
   <polyline stroke-opacity="0.15" stroke-linecap="butt" stroke-dasharray="16,0" points="74.88,384.48 521.28,384.48" stroke-linejoin="miter" stroke-width="0.5" fill="none" stroke="#262626"/>
   <polyline stroke-opacity="0.15" stroke-linecap="butt" stroke-dasharray="16,0" points="74.88,314.064 521.28,314.064" stroke-linejoin="miter" stroke-width="0.5" fill="none" stroke="#262626"/>
   <polyline stroke-opacity="0.15" stroke-linecap="butt" stroke-dasharray="16,0" points="74.88,243.648 521.28,243.648" stroke-linejoin="miter" stroke-width="0.5" fill="none" stroke="#262626"/>
   <polyline stroke-opacity="0.15" stroke-linecap="butt" stroke-dasharray="16,0" points="74.88,173.232 521.28,173.232" stroke-linejoin="miter" stroke-width="0.5" fill="none" stroke="#262626"/>
   <polyline stroke-opacity="0.15" stroke-linecap="butt" stroke-dasharray="16,0" points="74.88,102.816 521.28,102.816" stroke-linejoin="miter" stroke-width="0.5" fill="none" stroke="#262626"/>
   <polyline stroke-opacity="0.15" stroke-linecap="butt" stroke-dasharray="16,0" points="74.88,32.4 521.28,32.4" stroke-linejoin="miter" stroke-width="0.5" fill="none" stroke="#262626"/>
   <polyline stroke-linecap="butt" points="74.88,384.48 79.348,384.48" stroke-linejoin="miter" stroke-width="0.5" fill="none" stroke="#262626"/>
   <polyline stroke-linecap="butt" points="521.28,384.48 516.812,384.48" stroke-linejoin="miter" stroke-width="0.5" fill="none" stroke="#262626"/>
   <polyline stroke-linecap="butt" points="74.88,314.064 79.348,314.064" stroke-linejoin="miter" stroke-width="0.5" fill="none" stroke="#262626"/>
   <polyline stroke-linecap="butt" points="521.28,314.064 516.812,314.064" stroke-linejoin="miter" stroke-width="0.5" fill="none" stroke="#262626"/>
   <polyline stroke-linecap="butt" points="74.88,243.648 79.348,243.648" stroke-linejoin="miter" stroke-width="0.5" fill="none" stroke="#262626"/>
   <polyline stroke-linecap="butt" points="521.28,243.648 516.812,243.648" stroke-linejoin="miter" stroke-width="0.5" fill="none" stroke="#262626"/>
   <polyline stroke-linecap="butt" points="74.88,173.232 79.348,173.232" stroke-linejoin="miter" stroke-width="0.5" fill="none" stroke="#262626"/>
   <polyline stroke-linecap="butt" points="521.28,173.232 516.812,173.232" stroke-linejoin="miter" stroke-width="0.5" fill="none" stroke="#262626"/>
   <polyline stroke-linecap="butt" points="74.88,102.816 79.348,102.816" stroke-linejoin="miter" stroke-width="0.5" fill="none" stroke="#262626"/>
   <polyline stroke-linecap="butt" points="521.28,102.816 516.812,102.816" stroke-linejoin="miter" stroke-width="0.5" fill="none" stroke="#262626"/>
   <polyline stroke-linecap="butt" points="74.88,32.4 79.348,32.4" stroke-linejoin="miter" stroke-width="0.5" fill="none" stroke="#262626"/>
   <polyline stroke-linecap="butt" points="521.28,32.4 516.812,32.4" stroke-linejoin="miter" stroke-width="0.5" fill="none" stroke="#262626"/>
   <text font-style="normal" transform="translate(63.8755,388.48) rotate(-0,6,-4)" font-weight="normal" font-size="10" font-family="FreeSans" xml:space="preserve">
    <tspan x="0 " y="-0" fill="rgb(38,38,38)">0</tspan>
   </text>
   <text font-style="normal" transform="translate(57.8755,318.064) rotate(-0,12,-4)" font-weight="normal" font-size="10" font-family="FreeSans" xml:space="preserve">
    <tspan x="0 6 " y="-0" fill="rgb(38,38,38)">20</tspan>
   </text>
   <text font-style="normal" transform="translate(57.8755,247.648) rotate(-0,12,-4)" font-weight="normal" font-size="10" font-family="FreeSans" xml:space="preserve">
    <tspan x="0 6 " y="-0" fill="rgb(38,38,38)">40</tspan>
   </text>
   <text font-style="normal" transform="translate(57.8755,177.232) rotate(-0,12,-4)" font-weight="normal" font-size="10" font-family="FreeSans" xml:space="preserve">
    <tspan x="0 6 " y="-0" fill="rgb(38,38,38)">60</tspan>
   </text>
   <text font-style="normal" transform="translate(57.8755,106.816) rotate(-0,12,-4)" font-weight="normal" font-size="10" font-family="FreeSans" xml:space="preserve">
    <tspan x="0 6 " y="-0" fill="rgb(38,38,38)">80</tspan>
   </text>
   <text font-style="normal" transform="translate(51.8755,36.4) rotate(-0,18,-4)" font-weight="normal" font-size="10" font-family="FreeSans" xml:space="preserve">
    <tspan x="0 6 12 " y="-0" fill="rgb(38,38,38)">100</tspan>
   </text>
   <polyline stroke-linecap="square" stroke-dasharray="16,0" points="74.88,384.48 521.28,384.48" stroke-linejoin="miter" stroke-width="0.5" fill="none" stroke="#262626"/>
   <polyline stroke-linecap="square" stroke-dasharray="16,0" points="74.88,32.4 521.28,32.4" stroke-linejoin="miter" stroke-width="0.5" fill="none" stroke="#262626"/>
   <polyline stroke-linecap="square" stroke-dasharray="16,0" points="74.88,384.48 74.88,32.4" stroke-linejoin="miter" stroke-width="0.5" fill="none" stroke="#262626"/>
   <polyline stroke-linecap="square" stroke-dasharray="16,0" points="521.28,384.48 521.28,32.4" stroke-linejoin="miter" stroke-width="0.5" fill="none" stroke="#262626"/>
   <text font-style="normal" transform="translate(246.58,416.982) rotate(-0,51.5,-12)" font-weight="normal" font-size="11" font-family="FreeSans" xml:space="preserve">
    <tspan x="0 9 15 21 27 30 36 39 42 48 52 55 61 66 72 78 84 89 91 97 " y="-3" fill="rgb(38,38,38)">Mach after expansion</tspan>
   </text>
   <text font-style="normal" transform="translate(-17.6245,208.44) rotate(-90,64.5,0)" font-weight="normal" font-size="11" font-family="FreeSans" xml:space="preserve">
    <tspan x="0 7 12 18 24 30 35 37 43 49 52 59 65 71 73 79 82 86 92 98 104 108 114 120 125 " y="-3" fill="rgb(38,38,38)">Expansion Angle (degrees)</tspan>
   </text>
   <polyline stroke-linecap="butt" points="74.88,384.48 83.808,379.776 92.736,371.952 101.664,362.756 110.592,352.839 119.52,342.564 128.448,332.16 137.376,321.775 146.304,311.511 155.232,301.438 164.16,291.602 173.088,282.035 182.016,272.756 190.944,263.777 199.872,255.103 208.8,246.734 217.728,238.667 226.656,230.897 235.584,223.418 244.512,216.22 253.44,209.294 262.368,202.632 271.296,196.222 280.224,190.054 289.152,184.12 298.08,178.408 307.008,172.91 315.936,167.615 324.864,162.515 333.792,157.601 342.72,152.865 351.648,148.298 360.576,143.892 369.504,139.641 378.432,135.538 387.36,131.575 396.288,127.746 405.216,124.046 414.144,120.468 423.072,117.008 432,113.659 440.928,110.418 449.856,107.279 458.784,104.238 467.712,101.291 476.64,98.4333 485.568,95.6621 494.496,92.9733 503.424,90.3636 512.352,87.8298 521.28,85.3687" stroke-linejoin="round" stroke-width="0.5" fill="none" stroke="#0071bc"/>
  </g>
 </g>
</svg>
